<?xml version="1.0" encoding="utf-8"?>
<!-- Generator: Adobe Illustrator 27.5.0, SVG Export Plug-In . SVG Version: 6.00 Build 0)  -->
<svg version="1.1" xmlns="http://www.w3.org/2000/svg" xmlns:xlink="http://www.w3.org/1999/xlink" x="0px" y="0px"
	 viewBox="0 0 500 500" style="enable-background:new 0 0 500 500;" xml:space="preserve">
<g id="BACKGROUND">
	<rect style="fill:#F6F6F6;" width="500" height="500"/>
	<path style="fill:#FFFFFF;" d="M73.368,429.604C7.957,342.106,112.37,294.113,71.61,191.178C23.782,70.396,242.45,65.606,237.106,0
		h63.72c0,0-10.447,31.84,63.419,70.396c66.542,34.733,109.692,97.461,62.387,171.518c-47.306,74.056,46.532,108.034,0,187.69
		H73.368z"/>
</g>
<g id="OBJECTS">
	<g>
		<g>
			<g>
				<polygon style="fill:#EBEBEB;" points="421.737,293.167 394.481,297.53 411.911,319.107 439.313,314.801 				"/>
				<polygon style="fill:#DBDBDB;" points="394.482,297.531 384.486,323.26 402.063,344.893 411.912,319.107 				"/>
				<polygon style="fill:#DBDBDB;" points="439.313,314.801 411.912,319.107 402.063,344.893 429.464,340.586 				"/>
				<g>
					
						<line style="fill:none;stroke:#DBDBDB;stroke-width:2;stroke-miterlimit:10;" x1="425.134" y1="357.173" x2="425.134" y2="322.11"/>
					
						<line style="fill:none;stroke:#DBDBDB;stroke-width:2;stroke-miterlimit:10;" x1="425.134" y1="360.37" x2="425.134" y2="364.81"/>
				</g>
				
					<line style="fill:none;stroke:#DBDBDB;stroke-width:2;stroke-miterlimit:10;" x1="417.671" y1="351.032" x2="417.671" y2="335.888"/>
			</g>
			<g>
				<g>
					<g>
						<g>
							<path style="fill:#EBEBEB;" d="M146.208,313.693c0,0,35.503-121.991,34.131-137.347c-1.372-15.356-3.895-9.973-20.367,48.364
								c-16.473,58.337-23.597,86.539-23.597,86.539L146.208,313.693z"/>
							<path style="fill:#DBDBDB;" d="M158.55,316.76c38.202-88.259,37.528-118.619-6.658-1.655L158.55,316.76z"/>
							<path style="fill:#DBDBDB;" d="M132.766,310.353c23.504-115.308,28.787-131.594,28.932-91.617
								c0.076,20.924-25.287,92.523-25.287,92.523L132.766,310.353z"/>
							<path style="fill:#DBDBDB;" d="M153.035,315.389c41.644-108.002,33.38-121.916,31.962-120.832
								c-1.911,1.46-41.301,118.512-41.301,118.512L153.035,315.389z"/>
							<path style="fill:#EBEBEB;" d="M129.266,309.483c8.699-135.901,18.433-164.427,16.72-87.454
								c-1.713,76.974-11.175,88.831-11.175,88.831L129.266,309.483z"/>
							<path style="fill:#EBEBEB;" d="M129.266,309.483c-16.488-66.987,1.131-56.487,7.109,1.767L129.266,309.483z"/>
						</g>
						<path style="fill:#EBEBEB;" d="M159.716,317.05c26.524-38.123,35.614-51.535,18.498-43.795
							c-17.115,7.741-22.472,42.808-22.472,42.808L159.716,317.05z"/>
					</g>
					<path style="fill:#EBEBEB;" d="M109.877,318.512c-0.043,0.172-0.086,0.344-0.118,0.519c-2.168,9.375,0.09,18.764,5.455,25.947
						l38.707,9.619c8.114-3.833,14.515-11.071,16.987-20.37c0.053-0.17,0.096-0.342,0.138-0.514
						c0.357-1.438,0.608-2.881,0.748-4.309c0.222-2.02,0.237-4.027,0.07-5.993c-0.154-1.802-0.458-3.565-0.926-5.273
						c-0.641-2.482-1.596-4.87-2.814-7.108l-45.067-11.199c-2.124,1.408-4.076,3.073-5.814,4.964
						c-1.203,1.292-2.297,2.709-3.267,4.231c-1.068,1.659-1.995,3.44-2.744,5.329C110.688,315.681,110.235,317.074,109.877,318.512z
						"/>
					<path style="fill:#DBDBDB;" d="M113.977,309.025l57.888,14.385c-0.154-1.802-0.458-3.565-0.926-5.273l-53.695-13.343
						C116.041,306.086,114.947,307.503,113.977,309.025z"/>
					<path style="fill:#DBDBDB;" d="M109.877,318.512c-0.043,0.172-0.086,0.344-0.118,0.519l61.149,15.196
						c0.053-0.17,0.096-0.342,0.138-0.514c0.357-1.438,0.608-2.881,0.748-4.309l-60.562-15.05
						C110.688,315.681,110.235,317.074,109.877,318.512z"/>
				</g>
				<g>
					
						<line style="fill:none;stroke:#EBEBEB;stroke-width:2;stroke-miterlimit:10;" x1="124.273" y1="235.531" x2="124.273" y2="214.193"/>
					
						<line style="fill:none;stroke:#EBEBEB;stroke-width:2;stroke-miterlimit:10;" x1="124.273" y1="238.727" x2="124.273" y2="249.091"/>
				</g>
				<g>
					
						<line style="fill:none;stroke:#EBEBEB;stroke-width:2;stroke-miterlimit:10;" x1="113.977" y1="287.448" x2="113.977" y2="260.186"/>
					
						<line style="fill:none;stroke:#EBEBEB;stroke-width:2;stroke-miterlimit:10;" x1="113.977" y1="290.644" x2="113.977" y2="295.085"/>
				</g>
				<g>
					<g>
						
							<line style="fill:none;stroke:#EBEBEB;stroke-width:2;stroke-miterlimit:10;" x1="120.874" y1="381.598" x2="120.874" y2="354.336"/>
						
							<line style="fill:none;stroke:#EBEBEB;stroke-width:2;stroke-miterlimit:10;" x1="120.874" y1="384.794" x2="120.874" y2="389.234"/>
					</g>
					
						<line style="fill:none;stroke:#EBEBEB;stroke-width:2;stroke-miterlimit:10;" x1="131.24" y1="356.134" x2="131.24" y2="365.134"/>
					
						<line style="fill:none;stroke:#EBEBEB;stroke-width:2;stroke-miterlimit:10;" x1="144.658" y1="375.777" x2="144.658" y2="360.634"/>
				</g>
			</g>
			<g>
				<g>
					<path style="fill:#263238;" d="M177.477,260.635c5.65,3.529,11.656,6.469,17.856,8.908c7.582,2.983,15.455,5.277,23.445,6.868
						c7.505,1.494,15.129,2.351,22.759,2.934l-8.052-88.122c-1.085-0.036-2.132-0.054-3.14-0.056
						c-0.44-0.006-0.88-0.012-1.306-0.009c-3.518,0.022-6.62,0.256-9.379,0.75c-9.13,1.632-14.643,6.117-19.651,15.59
						c-6.884,12.991-5.551,24.676-19.707,33.447C172.038,246.069,182.45,254.64,177.477,260.635z"/>
				</g>
				<path style="fill:#263238;" d="M197.675,214.018c-1.793,7.075-6.314,13.644-11.872,18.302c-1.518,1.273-3.151,2.371-4.831,3.417
					c-1.797,1.12-3.633,2.226-5.2,3.664c-1.391,1.277-2.588,2.793-3.305,4.551c-0.804,1.972-0.785,4.123-0.27,6.166
					c0.574,2.274,1.652,4.387,2.186,6.67c0.15,0.643,0.26,1.31,0.3,1.977c0.641,0.417,1.297,0.81,1.963,1.187
					c0.164-2.44-0.694-4.993-1.539-7.276c-0.768-2.074-1.557-4.254-1.22-6.5c0.26-1.729,1.279-3.322,2.465-4.57
					c2.871-3.021,6.89-4.673,10.11-7.276c2.904-2.347,5.448-5.175,7.428-8.343c2.259-3.614,3.716-7.514,4.652-11.659
					C198.671,213.762,197.823,213.436,197.675,214.018z"/>
				<g>
					<g>
						<path style="fill:#263238;" d="M233.585,273.164c15.171-2.201,28.471-1.723,42.26-8.92c0.459-8.683-9.638-9.39-5.513-16.767
							c5.882-10.515-9.399-7.097-9.641-27.273c-0.199-15.997-7.605-32.383-27.506-29.818c-1.333,0.174-2.712,0.427-4.146,0.772
							c-4.223,1.011-8.95,2.798-14.193,5.505l0.663,2.707L233.585,273.164z"/>
					</g>
				</g>
				<path style="fill:#263238;" d="M277.96,262.739c0.486-0.24,0.968-0.488,1.454-0.728c-0.152-1.602-0.964-3.189-1.989-4.413
					c-1.697-2.025-4.493-3.712-5.039-6.478c-0.272-1.378,0.121-2.791,0.374-4.142c0.286-1.527,0.364-3.028-0.146-4.518
					c-1.009-2.951-3.677-4.819-6.059-6.611c-2.459-1.849-5.24-4.501-4.313-7.926c0.221-0.815-0.964-1.604-1.43-0.741
					c-1.476,2.732-0.148,5.864,1.863,7.949c2.137,2.217,5.043,3.591,6.958,6.029c0.873,1.111,1.443,2.413,1.38,3.845
					c-0.065,1.493-0.552,2.926-0.677,4.412c-0.259,3.081,1.474,5.352,3.567,7.396C275.446,258.317,277.769,260.413,277.96,262.739z"
					/>
				<g>
					<path style="fill:#FFFFFF;" d="M261.011,237.361l-5.975,1.471c-4.701,1.158-9.45-1.715-10.607-6.415l-2.092-8.496
						c-1.158-4.701,1.715-9.45,6.415-10.607l5.975-1.471c4.701-1.158,9.45,1.715,10.607,6.416l2.092,8.495
						C268.584,231.455,265.711,236.204,261.011,237.361z"/>
					<path style="fill:#D9DADE;stroke:#263238;stroke-miterlimit:10;" d="M256.81,238.396l-1.774,0.437
						c-4.701,1.158-9.45-1.715-10.607-6.415l-2.092-8.496c-1.158-4.701,1.715-9.45,6.415-10.607l1.774-0.437
						c4.701-1.158,9.45,1.715,10.607,6.415l2.092,8.496C264.383,232.489,261.511,237.238,256.81,238.396z"/>
				</g>
				<g>
					<path style="fill:#263238;" d="M258.038,356.438c54.455,18.482,67.053,23.049,78.231,34.189
						c4.841,4.824,5.746,15.497,4.595,20.812c-1.957,9.042-17.667,17.21-22.301,17.21s-74.445,0-74.445,0L258.038,356.438z"/>
				</g>
				<g>
					<path style="fill:#7E2CDB;" d="M183.215,289.764c2.167,16.47,5.83,33.624,8.551,45.219c1.999,8.538,3.482,14.058,3.482,14.058
						l50.047-8.589c22.634-18.114,13.847-65.043,13.847-65.043c-1.728-0.645-3.547-1.264-5.378-1.844
						c-13.014-4.127-27.549-6.694-27.549-6.694c-5.34-1.664-13.478-4.346-21.462-6.539c-2.721-0.735-5.417-1.419-7.984-1.986
						c-6.475-1.432-12.085-2.102-14.974-1.07C180.855,266.136,181.642,277.77,183.215,289.764z"/>
				</g>
				<g>
					<path style="fill:#CC8364;" d="M207.67,261.221l2.458,29.812l38.184,4.431l1.609-23.063c-13.014-4.127-23.705-5.53-23.705-5.53
						C220.876,265.208,215.653,263.413,207.67,261.221z"/>
				</g>
				<polygon style="fill:#783D3C;" points="249.92,272.401 243.63,294.921 248.312,295.464 				"/>
				<g>
					<path style="fill:#263238;" d="M195.244,349.045c-16.397,19.206-3.121,28.976-3.121,28.976l63.026,15.141l12.783-28.473
						c0,0-14.853-13.051-22.632-24.233L195.244,349.045z"/>
				</g>
				<g>
					<path style="fill:#263238;" d="M195.244,349.045c-28.216,29.286-24.229,79.384,7.152,79.604c53.607,0.375,97.357,0,97.357,0
						C277.382,379.616,223.934,359.214,195.244,349.045z"/>
				</g>
				<path style="fill:#38474F;" d="M211.982,369.036c1.135-0.874,2.613-1.435,3.905-2.046c1.289-0.61,2.592-1.19,3.908-1.741
					c2.665-1.116,5.408-2.066,8.172-2.905c5.521-1.676,11.199-2.865,16.929-3.541c3.218-0.379,6.455-0.565,9.693-0.648
					c0.668-0.017,0.795,1.018,0.119,1.04c-11.32,0.369-22.6,3.014-33.032,7.387c-1.493,0.626-2.98,1.269-4.446,1.956
					c-0.698,0.327-1.393,0.663-2.083,1.007c-0.752,0.375-1.491,0.834-2.289,1.096C211.878,370.963,211.133,369.69,211.982,369.036z"
					/>
				<g>
					<g>
						<path style="fill:#263238;" d="M316.297,333.46c6.941-3.356,10.931-23.216,10.931-23.216l-27.588-2.377
							C299.64,307.867,306.247,329.274,316.297,333.46z"/>
					</g>
					<g>
						<path style="fill:#783D3C;" d="M255.682,272.385c9.558-2.619,35.438,11.621,67.706,25.586l11.481,30.06
							c-15.221,4.874-73.974-26.623-73.974-26.623L255.682,272.385z"/>
					</g>
					<g>
						<path style="fill:#7E2CDB;" d="M253.362,311.807l0.594,0.208l1.812,0.624l60.536,20.825
							c-16.414-8.493-8.921-45.366-8.921-45.366c-10.137-4.624-20.672-6.95-26.957-9.568c-15.109-6.303-17.24-7.336-30.506-6.128
							C249.78,272.397,253.362,311.807,253.362,311.807z"/>
					</g>
					<g>
						<path style="fill:#CC8364;" d="M329.118,328.349c3.425,0.521,6.983-0.199,9.768-2.259c6.529-4.83,7.702-14.944,2.863-24.341
							c-6.216-12.071-59.067-56.87-59.067-56.87l-12.633,1.755l41.391,69.795C315.249,322.85,321.737,327.226,329.118,328.349
							L329.118,328.349z"/>
					</g>
				</g>
				<g>
					<path style="fill:#CC8364;" d="M276.01,249.978c-7.941-0.594-10.722-12.804-10.546-17.989l-5.324-4.979
						c-0.579-0.542-0.732-1.4-0.375-2.109l0,0c0.408-0.81,1.359-1.185,2.21-0.872l8.629,3.17l11.418,17.911L276.01,249.978z"/>
				</g>
				<g>
					<g>
						<g>
							<path style="fill:#CC8364;" d="M199.14,301.875l-0.96,21.91l-0.73,16.62l-22.41-5.31l-1.71-0.4c0-0.8,0-1.59,0.01-2.38v-0.01
								c0-0.01,0-0.01,0-0.02c0.14-31.89,3.2-61.11,8.46-70.49L199.14,301.875z"/>
						</g>
						<g>
							<path style="fill:#CC8364;" d="M197.45,340.405c0,0-0.18,1.82-0.51,5.06c-1.31,12.56-5.03,46.51-10.18,79.03l-12.25-7.57
								c0,0-8.78-53.46-1.18-82.23l1.71,0.4L197.45,340.405z"/>
						</g>
					</g>
					<path style="fill:#783D3C;" d="M198.18,323.785l-0.73,16.62c0,0-0.18,1.82-0.51,5.06c-13.11-1.37-19.29-6.93-21.9-10.37
						c-1.15-1.49-1.62-2.58-1.7-2.78v-0.01c-0.01-0.01-0.01-0.02-0.01-0.02h0.01L198.18,323.785z"/>
					<g>
						<path style="fill:#CC8364;" d="M180.315,412.932c0,0-19.251,5.46-28.378,5.831l-10.93,4.986
							c-1.453,0.663-1.864,2.535-0.821,3.745l0,0c0.586,0.68,1.503,0.976,2.376,0.766l9.737-2.339l24.504,0.188L180.315,412.932z"/>
					</g>
					<g>
						<path style="fill:#CC8364;" d="M186.763,424.492c-1.057,5.933-14.553,3.773-19.232,3.773c-3.532,0-10.245-0.143-13.322-0.212
							c-0.972-0.022-1.824-0.646-2.142-1.565l0,0c-0.475-1.37,0.406-2.836,1.839-3.06l10.934-1.711l16.695-9.108L186.763,424.492z"
							/>
					</g>
					<g>
						<path style="fill:#CC8364;" d="M174.508,414.702l-22.57,2.631l-6.864,6.568c-0.859,0.822-0.948,2.163-0.206,3.092l0,0
							c0.747,0.935,2.088,1.139,3.079,0.468l5.959-4.032l20.602,0.493V414.702z"/>
					</g>
				</g>
				<g>
					<g>
						<g>
							<path style="fill:#CC8364;" d="M245.3,241.475l-1.67,8.02l-0.43,2.05l-1.47,7.07l-0.94,4.52l-1.12,6.09
								c-1.24,6.73-7.49,11.34-14.28,10.51c-6.54-0.79-11.39-6.34-11.39-12.84c0-0.3,0.01-0.6,0.03-0.91l2.57-36.58L245.3,241.475z"
								/>
						</g>
						<g>
							<path style="fill:#783D3C;" d="M243.63,249.495l-0.43,2.05l-1.47,7.07c-11.89-0.34-22.48-7.73-23.09-18.36
								C224.55,239.685,241.57,248.025,243.63,249.495z"/>
						</g>
					</g>
					<g>
						<g>
							<path style="fill:#CC8364;" d="M252.363,199.088c-14.38-12.378-29.025-6.088-36.817,1.072
								c-9.038,8.305-9.57,20.753-4.957,31.144c2.098,4.787,5.313,9.165,9.33,12.528c7.033,5.908,17.105,9.157,25.534,5.51
								c6.085-2.62,10.4-8.494,12.285-14.859C260.932,223.729,257.243,203.289,252.363,199.088z"/>
						</g>
						<g>
							<path style="fill:#263238;" d="M252.431,207.269c-0.3,2.413-7.612,3.146-8.209,0.455
								C243.506,204.493,252.772,204.525,252.431,207.269z"/>
						</g>
						<g>
							<path style="fill:#263238;" d="M231.145,210.065c0.24,2.288-7.589,4.354-8.576,3.225
								C219.898,210.236,230.715,205.972,231.145,210.065z"/>
						</g>
						<g>
							<path style="fill:#263238;" d="M250.771,218.545c0.291,1.373-0.361,2.718-1.459,3.005c-1.097,0.286-2.223-0.595-2.515-1.968
								c-0.292-1.373,0.362-2.719,1.459-3.005C249.353,216.291,250.479,217.172,250.771,218.545z"/>
						</g>
						<g>
							<path style="fill:#263238;" d="M232.975,221.212c0.291,1.373-0.361,2.719-1.459,3.005c-1.097,0.286-2.223-0.595-2.515-1.968
								c-0.292-1.373,0.362-2.719,1.459-3.005C231.557,218.958,232.683,219.839,232.975,221.212z"/>
						</g>
						<g>
							<path style="fill:#263238;" d="M247.51,225.773c-1.435-3.183-3.029-6.266-4.659-9.351c-0.158-0.299-0.644-0.123-0.506,0.2
								c1.116,2.612,2.249,5.188,3.484,7.749c0.598,1.239,1.421,2.567,1.511,3.967c0.076,1.171-0.677,2.08-1.532,2.784
								c-0.222,0.183-0.156,0.58,0.161,0.612c1.094,0.11,2.008-0.855,2.262-1.833C248.597,228.498,248.083,227.043,247.51,225.773z"
								/>
						</g>
						<g>
							<path style="fill:#263238;" d="M223.812,192.572c1.631,14.982-7.782,33.575-15.741,33.811
								C200.358,201.54,223.812,192.572,223.812,192.572z"/>
						</g>
						<g>
							<path style="fill:#CC8364;" d="M206.918,222.642c-2.978-1.016-6.662-0.562-8.685,1.847c-1.685,2.007-1.887,4.887-1.477,7.475
								c0.529,3.339,1.995,6.584,4.439,8.918c2.445,2.334,5.916,3.67,9.263,3.201c3.348-0.469,6.439-2.881,7.374-6.13
								C219.626,231.722,212.269,224.467,206.918,222.642z"/>
						</g>
						<g>
							<path style="fill:#263238;" d="M210.938,234.061c-1.063-1.398-2.495-2.566-4.132-3.223c-0.751-0.301-1.514-0.544-2.314-0.671
								c-0.801-0.127-1.625-0.094-2.433-0.142c-0.526-0.031-0.686,0.833-0.147,0.933c0.357,0.067,0.684,0.146,1.015,0.301
								c0.331,0.154,0.645,0.345,0.964,0.522c0.326,0.181,0.649,0.372,0.966,0.567c0.154,0.094,0.307,0.191,0.454,0.295
								c0.144,0.103,0.368,0.22,0.473,0.362c-0.034-0.028-0.068-0.056-0.102-0.084c0.049,0.041,0.098,0.082,0.146,0.124
								c0.125,0.105,0.25,0.21,0.379,0.31c0.079,0.061,0.158,0.12,0.236,0.182c0.012,0.01,0.008,0.004,0.018,0.012
								c0.308,0.198,0.587,0.525,0.838,0.785c0.527,0.546,1.038,1.106,1.481,1.723c0.207,0.288,0.703,0.463,1.04,0.471
								c0.353,0.009,0.784-0.134,1.037-0.39C211.461,235.526,211.437,234.717,210.938,234.061z"/>
						</g>
						<g>
							<path style="fill:#EBEBEB;" d="M233.78,233.039c0.247-0.844,7.706-0.474,8.428,0.495c0.459,0.617-1.291,3.604-4.473,3.365
								C235.108,236.702,233.493,234.02,233.78,233.039z"/>
						</g>
					</g>
				</g>
				<g>
					<path style="fill:#7E2CDB;" d="M164.901,326.589c9.247,7.7,20.314,11.002,26.865,12.356c3.482,0.722,6.953,0.133,6.953,0.133
						l3.676-48.272L197.3,279.64l-15.503-22.364c-5.43,1.109-8.37,15.683-10.782,31.289
						C168.989,301.63,167.326,319.38,164.901,326.589z"/>
				</g>
				<g>
					<path style="fill:#9C79ED;" d="M198.149,332.876c0.061-1.714,0.122-3.428,0.183-5.142c0.12-3.374,0.226-6.749,0.372-10.122
						c0.146-3.375,0.296-6.749,0.455-10.122c0.162-3.429,0.44-6.853,0.554-10.283c0.005-0.142,0.222-0.143,0.222,0
						c-0.007,3.428,0.149,6.855,0.19,10.283c0.04,3.374,0.07,6.748,0.097,10.122c0.027,3.374,0.013,6.748,0.014,10.122
						c0.001,1.714,0.001,3.428,0.002,5.142c0.001,1.666,0.171,3.443-0.106,5.089c-0.17,1.01-1.91,1.044-2.047,0
						C197.866,336.307,198.089,334.546,198.149,332.876z"/>
				</g>
				<g>
					<path style="fill:#9C79ED;" d="M212.942,324.092c0.757-0.249,1.651-0.121,2.443-0.136c0.742-0.014,1.484-0.043,2.227-0.07
						c1.59-0.058,3.18-0.122,4.769-0.2c3.125-0.154,6.248-0.358,9.368-0.587c6.294-0.461,12.574-1.067,18.839-1.815
						c0.343-0.041,0.424,0.555,0.078,0.605c-6.237,0.888-12.492,1.663-18.758,2.315c-3.173,0.33-6.349,0.617-9.527,0.89
						c-1.589,0.136-3.179,0.27-4.769,0.392c-0.742,0.057-1.485,0.109-2.227,0.172c-0.802,0.067-1.654,0.263-2.443,0.083
						C212.064,325.539,212.175,324.344,212.942,324.092z"/>
				</g>
				<g>
					<path style="fill:#38474F;" d="M245.565,364.047c19.388,5.199,39.785,9.988,54.713,24.365c1.859,1.79,3.591,3.728,5.171,5.769
						c1.62,2.093,3.475,4.469,4.281,7.018c0.785,2.485-2.33,4.151-3.982,2.133c-1.384-1.691-2.371-3.723-3.643-5.506
						c-1.279-1.793-2.68-3.489-4.163-5.117c-2.961-3.251-6.292-6.149-9.852-8.727c-7.984-5.781-17.071-9.904-26.321-13.215
						c-5.478-1.961-11.027-3.685-16.615-5.299C244.35,365.236,244.749,363.828,245.565,364.047z"/>
				</g>
				<g>
					<path style="fill:#263238;" d="M217.234,197.018c25.732-3.633,39.743,7.501,39.743,7.501
						C249.409,186.711,232.944,188.122,217.234,197.018z"/>
				</g>
				<path style="fill:#D9DADE;" d="M208.45,228.896c-1.017-12.992,1.717-23.78,7.467-29.24c5.822-5.528,10.811-7.326,18.688-9.505
					l-0.002-0.012c-2.278-0.642-11.636,0.593-15.207,1.816C207.198,197.716,198.727,213.518,208.45,228.896z"/>
				<path style="fill:#FFFFFF;" d="M207.604,229.877c-3.176-13.437-0.263-23.641,6.383-30.69c5.796-6.148,12.637-8.496,20.619-9.037
					l-0.002-0.012c-2.435-0.615-12.487,0.742-16.333,2.013C205.114,198.081,197.369,214.589,207.604,229.877z"/>
				<g>
					<path style="fill:#FFFFFF;" d="M222.355,230.857l34.109-5.799c6.7-1.146,11.241-7.276,10.144-13.691l0,0
						c-1.098-6.415-7.419-10.687-14.118-9.54l-34.108,5.799c-6.7,1.146-11.241,7.276-10.144,13.691v0
						C209.334,227.732,215.655,232.003,222.355,230.857z"/>
					<path style="fill:none;stroke:#263238;stroke-miterlimit:10;" d="M230.805,229.411l26.174-4.442
						c6.415-1.098,10.726-7.188,9.628-13.603l0,0c-1.097-6.415-7.188-10.726-13.603-9.628l-26.174,4.442
						c-6.415,1.098-10.726,7.188-9.628,13.603v0C218.3,226.198,224.39,230.509,230.805,229.411z"/>
					<path style="fill:#D9DADE;" d="M256.94,222.715l-12.55,2.13l-4.19,0.71l-1.78,0.31l-7.33,1.24l-0.4,0.07
						c-0.54,0.09-1.09,0.14-1.62,0.14c-4.57,0-8.61-3.29-9.41-7.95c-0.89-5.21,2.6-10.15,7.81-11.04l13.29-2.25l7.32-1.24l1.79-0.31
						l3.85-0.65c0.11-0.02,0.22-0.03,0.33-0.04c0.44-0.07,0.87-0.1,1.29-0.1c4.57,0,8.61,3.29,9.41,7.95
						C265.64,216.885,262.15,221.825,256.94,222.715z"/>
					<g>
						<polygon style="fill:#FFFFFF;" points="248.08,204.835 238.42,225.865 231.09,227.105 240.76,206.075 						"/>
						<path style="fill:#FFFFFF;" d="M254.05,203.835l-9.66,21.01l-4.19,0.71l9.67-21.03l3.85-0.65
							C253.83,203.855,253.94,203.845,254.05,203.835z"/>
					</g>
					<path style="fill:#7E2CDB;" d="M249.398,215.803l-13.894,2.347c-0.802,0.135-1.563-0.405-1.698-1.208l0,0
						c-0.135-0.802,0.405-1.563,1.208-1.698l13.894-2.347c0.802-0.135,1.563,0.405,1.698,1.208l0,0
						C250.741,214.907,250.201,215.667,249.398,215.803z"/>
				</g>
				<g>
					<path style="fill:#FFFFFF;" d="M213.562,245.655l-5.975,1.471c-4.701,1.158-9.45-1.715-10.607-6.415l-2.092-8.496
						c-1.158-4.701,1.715-9.45,6.416-10.607l5.975-1.471c4.701-1.158,9.45,1.715,10.607,6.416l2.092,8.495
						C221.135,239.749,218.263,244.498,213.562,245.655z"/>
					<path style="fill:#D9DADE;" d="M203.403,226.312L203.403,226.312c3.188-0.785,6.409,1.163,7.194,4.351l1.017,4.128
						c0.785,3.188-1.163,6.409-4.351,7.194l0,0c-3.188,0.785-6.409-1.163-7.194-4.351l-1.017-4.128
						C198.266,230.318,200.215,227.097,203.403,226.312z"/>
					<path style="fill:none;stroke:#263238;stroke-miterlimit:10;" d="M209.362,246.69l-1.774,0.437
						c-4.701,1.158-9.45-1.715-10.607-6.415l-2.092-8.496c-1.158-4.701,1.715-9.45,6.416-10.607l1.774-0.437
						c4.701-1.158,9.45,1.715,10.607,6.416l2.092,8.496C216.935,240.783,214.063,245.532,209.362,246.69z"/>
				</g>
				<g>
					<g>
						<path style="fill:#CC8364;" d="M281.598,244.774c-7.941-0.593-10.722-12.804-10.546-17.989l-8.827-6.647
							c-0.579-0.542-0.732-1.4-0.375-2.109l0,0c0.408-0.81,1.359-1.185,2.21-0.872l12.132,4.838L281.598,244.774z"/>
					</g>
					<g>
						<g>
							<path style="fill:#CC8364;" d="M282.682,244.878l-2.646-30.767c0.007-1.051-0.513-2.035-1.384-2.623l-1.559-1.051
								l-0.155-3.197c-0.063-1.298-0.992-2.391-2.262-2.664l-11.222-2.405c-1.09-0.176-2.128,0.528-2.368,1.605l-0.031,0.141
								c-0.212,0.954,0.266,1.927,1.151,2.342l6.132,2.874l-3.637-0.364c-1.12-0.112-2.128,0.685-2.275,1.802l0,0
								c-0.114,0.861,0.319,1.703,1.085,2.113l8.156,4.356c0,0-2.923,7.074-1.392,15.87c1.531,8.797,5.737,17.068,5.737,17.068
								L282.682,244.878z"/>
						</g>
					</g>
				</g>
				<path style="fill:#9C79ED;" d="M259.759,310.852c-0.17,0.96-0.55,2.05-0.42,3.01l1.83,0.57c0.01-0.01,0.01-0.02,0.02-0.03
					c1.41-2.28,2.5-4.78,3.25-7.35c0.76-2.59,0.97-5.2,1.09-7.88c0.02-0.42-0.61-0.41-0.65,0c-0.26,2.55-1.04,5.09-1.88,7.5
					c-0.5,1.44-1.11,2.82-1.79,4.17c0.12-1.03,0.23-2.06,0.31-3.09c0.16-2.12,0.18-4.25,0.1-6.38c-0.18-4.23-0.75-8.51-2.05-12.56
					c-0.09-0.27-0.47-0.16-0.43,0.11c0.73,4.17,1.3,8.34,1.33,12.57c0.01,2.05-0.1,4.1-0.29,6.14
					C260.069,308.712,259.939,309.782,259.759,310.852z"/>
			</g>
			<g>
				<g>
					<g>
						<path style="fill:#EBEBEB;" d="M319.645,355.602l0.486-1.94c1.207,0.302,2.47,0.485,3.753,0.543l-0.089,1.998
							C322.378,356.139,320.981,355.937,319.645,355.602z M316.653,354.589c-1.296-0.561-2.526-1.267-3.656-2.099l1.185-1.611
							c1.009,0.743,2.108,1.374,3.266,1.875L316.653,354.589z M326.93,356.126l-0.187-1.992c1.258-0.118,2.523-0.349,3.759-0.688
							l0.528,1.928C329.683,355.745,328.303,355.997,326.93,356.126z M310.614,350.407c-0.954-0.986-1.825-2.097-2.589-3.303
							l1.689-1.07c0.691,1.091,1.478,2.094,2.336,2.982L310.614,350.407z M333.99,354.359l-0.77-1.846
							c1.186-0.494,2.326-1.089,3.389-1.768l1.078,1.686C336.525,353.172,335.282,353.821,333.99,354.359z M340.205,350.56
							l-1.304-1.518c0.983-0.844,1.859-1.767,2.603-2.745l1.591,1.211C342.267,348.598,341.294,349.624,340.205,350.56z
							 M344.79,344.824l-1.782-0.907c0.317-0.624,0.59-1.27,0.809-1.919c0.074-0.218,0.143-0.437,0.205-0.659l1.926,0.535
							c-0.071,0.257-0.151,0.512-0.237,0.764C345.462,343.378,345.151,344.113,344.79,344.824z"/>
					</g>
				</g>
				<g>
					<g>
						<path style="fill:#EBEBEB;" d="M344.853,343.2c-1.309-0.442-2.427-1.429-2.988-2.806l0-0.001
							c-1.024-2.514,0.189-5.392,2.702-6.416c2.513-1.024,5.392,0.188,6.416,2.702c0.497,1.218,0.489,2.557-0.022,3.768
							c-0.511,1.212-1.463,2.152-2.681,2.648C347.145,343.559,345.933,343.565,344.853,343.2z M344.643,339.262
							c0.4,0.982,1.523,1.456,2.507,1.056c0.981-0.4,1.456-1.524,1.056-2.506c-0.194-0.476-0.562-0.848-1.035-1.047
							c-0.479-0.202-0.996-0.203-1.472-0.009C344.717,337.156,344.244,338.281,344.643,339.262L344.643,339.262z"/>
					</g>
				</g>
			</g>
			<g>
				<g>
					
						<line style="fill:none;stroke:#EBEBEB;stroke-width:2;stroke-miterlimit:10;" x1="373.012" y1="252.865" x2="373.012" y2="226.46"/>
					
						<line style="fill:none;stroke:#EBEBEB;stroke-width:2;stroke-miterlimit:10;" x1="373.012" y1="256.061" x2="373.012" y2="261.358"/>
				</g>
				<g>
					<g>
						
							<line style="fill:none;stroke:#EBEBEB;stroke-width:2;stroke-miterlimit:10;" x1="362.646" y1="361.488" x2="362.646" y2="326.426"/>
						
							<line style="fill:none;stroke:#EBEBEB;stroke-width:2;stroke-miterlimit:10;" x1="362.646" y1="364.685" x2="362.646" y2="369.125"/>
					</g>
					
						<line style="fill:none;stroke:#EBEBEB;stroke-width:2;stroke-miterlimit:10;" x1="373.012" y1="340.297" x2="373.012" y2="356.438"/>
					
						<line style="fill:none;stroke:#EBEBEB;stroke-width:2;stroke-miterlimit:10;" x1="382.183" y1="348.815" x2="382.183" y2="333.672"/>
				</g>
				<g>
					<g>
						<g>
							<g>
								<path style="fill:#DBDBDB;" d="M343.442,212.963c0.827,9.393,1.664,18.845,4.131,27.946
									c2.467,9.101,6.68,17.927,13.415,24.527c-3.151-10.805-3.397-20.327-6.945-30.308
									C351.357,227.574,346.513,219.367,343.442,212.963z"/>
							</g>
							<g>
								<path style="fill:#DBDBDB;" d="M359.056,263.212c-9.746-8.755-24.703-11.188-36.721-5.973
									c4.953,2.302,10.417,4.525,15.879,4.507C345.356,261.723,352.43,260.869,359.056,263.212z"/>
							</g>
							<g>
								<g>
									<g>
										<path style="fill:#7E2CDB;" d="M353.378,251.32c0.457-6.766,0.343-13.57-0.339-20.316
											c-0.131-1.297-0.289-2.612-0.796-3.813c-0.508-1.201-1.418-2.29-2.648-2.722c-1.243-0.437-2.721-0.109-3.663,0.812
											c-0.942,0.921-1.303,2.391-0.896,3.643c-1.254-0.749-2.794-1.361-4.206-1.738c-1.411-0.377-3.002-0.33-4.232,0.459
											c-0.907,0.582-1.557,1.549-1.753,2.609s0.066,2.195,0.704,3.063c-2.029-0.368-4.11,2.082-4.374,4.127
											c-0.265,2.045,0.842,4.074,2.383,5.444c1.541,1.37,3.475,2.201,5.372,3.008
											C343.739,247.943,348.57,249.273,353.378,251.32z"/>
									</g>
									<g>
										<path style="fill:#9C79ED;" d="M359.446,230.381c0.105,1.284-0.234,2.57-0.576,3.82
											c-1.101,4.021-2.198,8.052-3.284,12.079l-1.954,3.395l-0.281,0.493c-2.684-2.045-5.212-4.282-7.576-6.69
											c-1.102-1.12-2.186-2.319-2.794-3.785c-0.594-1.459-0.614-3.245,0.325-4.507c0.935-1.272,3.526-2.021,4.7-0.965
											c-0.459-1.233-0.537-2.636-0.086-3.88s1.46-2.292,2.726-2.667c1.276-0.379,2.847-0.269,3.703,0.741
											c0.356-1.243,2.014-1.757,3.177-1.202c0.222,0.108,0.416,0.239,0.594,0.387
											C358.917,228.271,359.362,229.342,359.446,230.381z"/>
									</g>
									<g>
										<path style="fill:#7E2CDB;" d="M359.446,230.381c0.105,1.284-0.234,2.57-0.576,3.82
											c-1.101,4.021-2.198,8.052-3.284,12.079l-1.954,3.395c-0.498-2.061-0.322-4.248-0.047-6.364
											c0.322-2.435,0.759-4.853,1.372-7.219c0.538-2.06,1.194-4.092,2.025-6.047c0.308-0.708,0.647-1.68,1.137-2.445
											C358.917,228.271,359.362,229.342,359.446,230.381z"/>
									</g>
									<g>
										<path style="fill:#9C79ED;" d="M350.173,249.655c-3.056-3.457-6.804-6.301-10.956-8.315
											c-0.844-0.409-1.776-0.793-2.693-0.599c-0.917,0.194-1.698,1.232-1.283,2.073c-2.414-1.333-6.015,0.302-7.301,2.742
											s-0.198,5.836,2.266,7.075c1.672,0.84,3.644,0.723,5.51,0.585c4.178-0.308,8.356-0.616,12.534-0.924L350.173,249.655z"/>
									</g>
									<g>
										<path style="fill:#263238;" d="M347.115,252.37c1.855-7.463,9.134-7.176,9.134-7.176
											C359.259,249.671,353.934,257.184,347.115,252.37z"/>
									</g>
								</g>
								<g>
									<path style="fill:#263238;" d="M367.828,290.051l-1.005,0.169c-2.297-13.655-6.79-26.762-13.355-38.957l0.897-0.483
										C360.983,263.073,365.512,276.285,367.828,290.051z"/>
								</g>
							</g>
							<g>
								<path style="fill:#EBEBEB;" d="M359.461,220.641c-4.834,19.508-4.364,29.233,0.776,42.546
									c2.342-5.354,1.991-10.624,1.853-16.466C361.805,234.704,360.424,228.682,359.461,220.641z"/>
							</g>
						</g>
						<g>
							<g>
								<path style="fill:#DBDBDB;" d="M384.065,289.107l2.649,7.344l9.777,27.077l-24.818,9.48l-10.765-26.7l-2.922-7.24
									l-0.064-0.168c-0.775-2.028-0.974-4.252-0.554-6.399c1.516-7.695,0.825-15.618-1.957-22.9
									c-0.401-1.051-0.849-2.096-1.334-3.115l11.18-4.271c0.317,1.083,0.681,2.16,1.082,3.211
									c2.781,7.281,7.549,13.648,13.809,18.373C381.94,285.151,383.298,287.004,384.065,289.107z"/>
							</g>
							<g>
								<path style="fill:#DBDBDB;" d="M384.065,289.107l2.649,7.344l9.777,27.077l-24.818,9.48l-10.765-26.7l-2.922-7.24
									l-0.064-0.168c-0.775-2.028-0.974-4.252-0.554-6.399c1.516-7.695,0.825-15.618-1.957-22.9
									c-0.401-1.051-0.849-2.096-1.334-3.115l11.18-4.271c0.317,1.083,0.681,2.16,1.082,3.211
									c2.781,7.281,7.549,13.648,13.809,18.373C381.94,285.151,383.298,287.004,384.065,289.107z"/>
							</g>
							<g>
								<path style="fill:#EBEBEB;" d="M384.065,289.107l2.649,7.344l9.777,27.077l-16.538,6.318l-10.765-26.7l-2.922-7.24
									l-0.064-0.168c-0.775-2.028-0.974-4.252-0.554-6.399c1.516-7.695,0.825-15.618-1.957-22.9
									c-0.401-1.051-0.849-2.096-1.334-3.115l2.9-1.108c0.317,1.083,0.681,2.16,1.082,3.211
									c2.781,7.281,7.549,13.648,13.809,18.373C381.94,285.151,383.298,287.004,384.065,289.107z"/>
							</g>
							<g>
								<path style="fill:#7E2CDB;" d="M384.068,289.108l2.649,7.344l-25.806,9.858l-2.922-7.24l-0.064-0.168
									c-0.775-2.028-0.974-4.251-0.554-6.399c1.516-7.695,0.825-15.618-1.957-22.9c-0.401-1.051-0.849-2.096-1.334-3.115
									l11.18-4.271c0.317,1.083,0.681,2.16,1.082,3.211c2.781,7.281,7.549,13.648,13.809,18.372
									C381.943,285.152,383.301,287.005,384.068,289.108z"/>
							</g>
							<g>
								<path style="fill:#9C79ED;" d="M384.068,289.108l2.649,7.344l-17.526,6.695l-2.922-7.24l-0.064-0.168
									c-0.775-2.028-0.974-4.251-0.554-6.399c1.516-7.695,0.825-15.618-1.957-22.9c-0.401-1.051-0.849-2.096-1.334-3.115
									l2.9-1.108c0.317,1.083,0.681,2.16,1.082,3.211c2.781,7.281,7.549,13.648,13.809,18.372
									C381.943,285.152,383.301,287.005,384.068,289.108z"/>
							</g>
						</g>
					</g>
				</g>
			</g>
			<g>
				<g>
					<g>
						<path style="fill:#DBDBDB;" d="M174.92,73.495v73.85c-1.57,0.15-3.11,0.31-4.63,0.48c-6.23,0.65-12.06,1.35-17.52,2.11
							c-3.43,0.46-6.7,0.95-9.84,1.46c-8.94,1.44-16.71,3.02-23.43,4.72c-27.03,6.83-36.97,15.62-36.97,25.2v-73.86
							C82.53,93.006,105.14,80.355,174.92,73.495z"/>
					</g>
					<g>
						<g>
							<path style="fill:#EBEBEB;" d="M164.486,89.121L164.486,89.121c0,1.167-0.89,2.142-2.051,2.261
								c-60.292,6.139-79.905,17.253-79.905,29.928v-4.577c0-12.644,19.514-23.734,79.452-29.873
								C163.32,86.722,164.486,87.775,164.486,89.121z"/>
						</g>
						<g>
							<path style="fill:#EBEBEB;" d="M164.486,98.337L164.486,98.337c0,1.167-0.89,2.142-2.051,2.261
								c-60.292,6.139-79.905,17.253-79.905,29.928v-4.577c0-12.644,19.514-23.734,79.452-29.873
								C163.32,95.938,164.486,96.992,164.486,98.337z"/>
						</g>
						<g>
							<path style="fill:#EBEBEB;" d="M164.486,107.554L164.486,107.554c0,1.167-0.89,2.142-2.051,2.261
								c-60.292,6.139-79.905,17.253-79.905,29.928v-4.577c0-12.644,19.514-23.734,79.452-29.873
								C163.32,105.155,164.486,106.209,164.486,107.554z"/>
						</g>
						<g>
							<path style="fill:#EBEBEB;" d="M164.486,116.771L164.486,116.771c0,1.167-0.89,2.142-2.051,2.261
								c-60.292,6.139-79.905,17.253-79.905,29.928v-4.577c0-12.644,19.514-23.734,79.452-29.873
								C163.32,114.372,164.486,115.425,164.486,116.771z"/>
						</g>
						<g>
							<path style="fill:#EBEBEB;" d="M164.486,125.988L164.486,125.988c0,1.167-0.89,2.142-2.051,2.261
								c-60.292,6.139-79.905,17.253-79.905,29.928v-4.577c0-12.644,19.514-23.734,79.452-29.873
								C163.32,123.589,164.486,124.642,164.486,125.988z"/>
						</g>
						<g>
							<path style="fill:#EBEBEB;" d="M119.06,142.373c0.017-1.442-1.339-2.507-2.738-2.162
								c-24.729,6.098-33.791,13.99-33.791,22.605v4.577c0-8.734,9.314-16.727,34.831-22.862c0.981-0.236,1.686-1.103,1.698-2.113
								C119.059,142.404,119.059,142.388,119.06,142.373z"/>
						</g>
					</g>
					<path style="fill:#DBDBDB;" d="M102.626,129.947v73.86c-12.672-6.34-20.095-14.026-20.095-22.31v-73.86
						C82.531,115.913,89.954,123.598,102.626,129.947z"/>
				</g>
				<g>
					<polygon style="fill:#FFFFFF;" points="165.369,123.999 137.769,124.371 151.892,148.243 179.628,147.949 					"/>
					<polygon style="fill:#9C79ED;" points="137.77,124.371 124.155,148.382 138.414,172.332 151.892,148.244 					"/>
					<polygon style="fill:#7E2CDB;" points="179.628,147.949 151.892,148.244 138.414,172.332 166.15,172.037 					"/>
				</g>
				<g>
					<g>
						<g>
							<path style="fill:#DBDBDB;" d="M124.055,164.349l1.39,1.438c-0.895,0.865-1.717,1.841-2.444,2.9l-1.649-1.132
								C122.155,166.384,123.065,165.306,124.055,164.349z M126.497,162.344c1.161-0.804,2.411-1.475,3.714-1.995l0.741,1.857
								c-1.164,0.464-2.28,1.063-3.318,1.782L126.497,162.344z M119.761,170.256l1.79,0.894c-0.565,1.13-1.037,2.326-1.403,3.555
								l-1.916-0.571C118.63,172.795,119.145,171.49,119.761,170.256z M133.238,159.426c1.341-0.289,2.745-0.441,4.172-0.453
								l0.016,2c-1.291,0.011-2.559,0.148-3.766,0.408L133.238,159.426z M117.53,177.183l1.974,0.322
								c-0.207,1.268-0.305,2.55-0.289,3.811l-2.001,0.024C117.198,179.963,117.304,178.565,117.53,177.183z M117.471,184.468
								l1.977-0.305c0.197,1.28,0.518,2.512,0.955,3.661l-1.869,0.71C118.047,187.255,117.69,185.887,117.471,184.468z
								 M119.918,191.391l1.712-1.034c0.362,0.599,0.766,1.172,1.201,1.701c0.146,0.178,0.295,0.353,0.451,0.523l-1.472,1.352
								c-0.181-0.197-0.355-0.399-0.524-0.605C120.79,192.726,120.33,192.074,119.918,191.391z"/>
						</g>
					</g>
					<g>
						<g>
							<path style="fill:#DBDBDB;" d="M121.263,192.303c1.067-0.878,2.496-1.305,3.961-1.054l0,0
								c2.675,0.459,4.478,3.01,4.019,5.685c-0.459,2.675-3.009,4.478-5.684,4.019c-1.297-0.222-2.429-0.936-3.188-2.01
								c-0.758-1.074-1.054-2.379-0.831-3.675C119.747,194.059,120.382,193.027,121.263,192.303z M124.717,194.205
								c-1.045-0.179-2.041,0.524-2.221,1.57c-0.179,1.045,0.525,2.042,1.57,2.221c0.507,0.087,1.017-0.029,1.436-0.325
								c0.425-0.3,0.699-0.739,0.785-1.245C126.466,195.382,125.761,194.385,124.717,194.205L124.717,194.205z"/>
						</g>
					</g>
				</g>
			</g>
			<g>
				<g>
					<path style="fill:#DBDBDB;" d="M197.946,80.74v80.018c17.963-2.348,37.456-3.632,57.813-3.632
						c30.436,0,58.923,2.861,83.321,7.86v-80.03c-24.398-4.987-52.884-7.849-83.321-7.849
						C235.402,77.107,215.909,78.392,197.946,80.74z"/>
				</g>
				<path style="fill:#EBEBEB;" d="M230.266,124.976c0,5.118-4.149,9.579-9.268,9.962c-5.119,0.383-9.268-3.455-9.268-8.574
					c0-5.119,4.149-9.579,9.268-9.962C226.116,116.019,230.266,119.858,230.266,124.976z"/>
				<path style="fill:#EBEBEB;" d="M306.639,94.824c0,4.542-3.682,7.685-8.224,7.021c-4.542-0.665-8.224-4.885-8.224-9.427
					c0-4.542,3.682-7.685,8.224-7.021C302.957,86.062,306.639,90.282,306.639,94.824z"/>
				<g>
					<g>
						<g>
							<rect x="299.406" y="143.378" style="fill:#EBEBEB;" width="20.589" height="2.544"/>
						</g>
						<g>
							<rect x="323.043" y="143.378" style="fill:#EBEBEB;" width="2.371" height="2.544"/>
						</g>
					</g>
					<g>
						<g>
							<ellipse style="fill:#EBEBEB;" cx="273.647" cy="133.277" rx="31.841" ry="31.132"/>
						</g>
						<g>
							<path style="fill:#FFFFFF;" d="M303.169,121.607c-2.23,1.83-4.75,3.38-7.54,4.59c-16.08,6.95-34.89-0.16-42-15.89
								c-0.14-0.31-0.27-0.61-0.4-0.92c2.23-1.82,4.75-3.37,7.54-4.58c16.09-6.96,34.89,0.16,42,15.88
								C302.909,120.997,303.039,121.297,303.169,121.607z"/>
						</g>
						<g>
							<path style="fill:#EBEBEB;" d="M320.639,112.957c-0.73-1.51-2.05-2.52-3.29-3.1c-1.26-0.59-2.51-0.91-3.73-1.09
								c-2.44-0.36-4.79-0.3-7.1-0.13c-3.83,0.3-7.55,0.96-11.21,1.81c0.83,0.75,1.62,1.55,2.36,2.39c3.01-0.54,6.02-0.93,9.03-1.04
								c2.15-0.05,4.3,0.04,6.27,0.44c1.96,0.37,3.71,1.29,4.04,2.29c0.38,0.97-0.24,2.68-1.37,4.24c-1.13,1.56-2.64,2.99-4.22,4.35
								c-2.01,1.65-4.18,3.16-6.44,4.56c-1.39,0.87-2.81,1.69-4.24,2.49c-7.58,4.15-15.5,7.71-23.43,11.2
								c-3.97,1.75-8,3.38-12.08,4.82c-4.08,1.46-8.19,2.82-12.34,3.9c-1.73,0.45-3.46,0.88-5.19,1.24
								c-2.42,0.52-4.84,0.93-7.23,1.15c-2.02,0.18-4.05,0.25-5.81,0.03c-0.88-0.09-1.65-0.3-2.21-0.52
								c-0.57-0.24-0.77-0.43-0.87-0.52c-0.09-0.1-0.2-0.42-0.08-1.05c0.13-0.62,0.43-1.4,0.89-2.18c0.9-1.57,2.21-3.16,3.62-4.66
								c1.88-1.96,3.97-3.82,6.17-5.57c-0.3-1.85-0.42-3.7-0.37-5.54c-3.37,2.13-6.68,4.41-9.77,7.15
								c-1.76,1.58-3.46,3.27-4.95,5.39c-0.74,1.07-1.42,2.28-1.89,3.77c-0.46,1.46-0.66,3.45,0.15,5.38
								c0.83,1.92,2.43,3.22,3.84,3.97c1.44,0.77,2.83,1.19,4.15,1.46c2.65,0.55,5.13,0.65,7.57,0.6c4.83-0.14,9.44-0.81,13.97-1.77
								c0.02,0,0.05-0.01,0.07-0.01c4.54-0.99,9-2.19,13.36-3.63c4.37-1.44,8.64-3.09,12.87-4.85c8.4-3.62,16.38-8.23,23.65-13.86
								c0.19-0.15,0.39-0.3,0.58-0.45c3.43-2.67,6.72-5.55,9.71-8.82c1.59-1.72,3.09-3.56,4.35-5.7c0.64-1.06,1.19-2.25,1.53-3.61
								C321.329,116.157,321.369,114.477,320.639,112.957z"/>
						</g>
					</g>
					<g>
						<g>
							<rect x="287.984" y="150.269" style="fill:#EBEBEB;" width="15.696" height="2.544"/>
						</g>
						<g>
							<rect x="306.728" y="150.269" style="fill:#EBEBEB;" width="4.101" height="2.544"/>
						</g>
					</g>
				</g>
				<g>
					<g>
						<g>
							<path style="fill:#DBDBDB;" d="M284.625,189.865l-1.483-1.341c0.834-0.923,1.589-1.952,2.243-3.058l1.722,1.018
								C286.384,187.705,285.549,188.843,284.625,189.865z M282.324,192.03c-1.104,0.88-2.306,1.634-3.572,2.24l-0.865-1.803
								c1.13-0.541,2.203-1.215,3.19-2.002L282.324,192.03z M288.512,183.681l-1.846-0.771c0.488-1.166,0.878-2.391,1.16-3.641
								l1.95,0.441C289.469,181.072,289.043,182.408,288.512,183.681z M275.795,195.394c-1.319,0.379-2.709,0.625-4.132,0.733
								l-0.151-1.994c1.288-0.098,2.543-0.32,3.73-0.661L275.795,195.394z M290.271,176.62l-1.992-0.188
								c0.122-1.279,0.133-2.565,0.032-3.822l1.994-0.159C290.415,173.823,290.403,175.226,290.271,176.62z M289.839,169.347
								l-1.952,0.437c-0.283-1.264-0.686-2.471-1.199-3.588l1.817-0.835C289.076,166.606,289.525,167.947,289.839,169.347z
								 M286.931,162.605l-1.638,1.146c-0.402-0.573-0.844-1.117-1.313-1.616c-0.158-0.167-0.318-0.332-0.486-0.491l1.378-1.449
								c0.194,0.184,0.381,0.374,0.563,0.568C285.971,161.332,286.474,161.952,286.931,162.605z"/>
						</g>
					</g>
					<g>
						<g>
							<path style="fill:#DBDBDB;" d="M285.528,161.786c-1.006,0.948-2.402,1.471-3.881,1.318l0,0
								c-2.7-0.278-4.671-2.701-4.393-5.401c0.278-2.7,2.701-4.671,5.401-4.393c1.309,0.134,2.486,0.77,3.316,1.79
								c0.829,1.021,1.212,2.303,1.077,3.611C286.921,159.932,286.358,161.004,285.528,161.786z M281.953,160.12
								c1.055,0.108,2.001-0.66,2.11-1.717c0.108-1.054-0.661-2.002-1.716-2.11c-0.511-0.053-1.012,0.097-1.411,0.421
								c-0.404,0.328-0.647,0.784-0.7,1.295C280.129,159.065,280.899,160.011,281.953,160.12L281.953,160.12z"/>
						</g>
					</g>
				</g>
				<g>
					<g>
						<path style="fill:#EBEBEB;" d="M252.031,85.801c-14.953,0.086-29.573,1-43.536,2.716c-0.749,0.092-1.301,0.733-1.295,1.487
							c0,0.01,0,0.021,0,0.031c0.006,0.887,0.77,1.567,1.65,1.458c13.853-1.703,28.361-2.608,43.204-2.693
							c0.809-0.005,1.466-0.654,1.474-1.463c0-0.011,0-0.021,0-0.032C253.536,86.476,252.861,85.797,252.031,85.801z"/>
					</g>
					<g>
						<path style="fill:#EBEBEB;" d="M251.965,92.442c-14.929,0.089-29.526,1.001-43.468,2.715c-0.746,0.092-1.303,0.729-1.302,1.48
							c0,0.01,0,0.021,0,0.031c0,0.89,0.774,1.574,1.657,1.465c13.832-1.7,28.317-2.604,43.137-2.692
							c0.809-0.005,1.465-0.654,1.474-1.464c0-0.011,0-0.021,0-0.032C253.472,93.117,252.795,92.437,251.965,92.442z"/>
					</g>
					<g>
						<path style="fill:#EBEBEB;" d="M251.92,99.082c-14.911,0.09-29.49,1.002-43.416,2.714c-0.746,0.092-1.303,0.729-1.302,1.48
							c0,0.01,0,0.021,0,0.031c0.001,0.89,0.774,1.574,1.657,1.465c13.816-1.698,28.284-2.602,43.085-2.691
							c0.813-0.005,1.471-0.66,1.474-1.472c0-0.011,0-0.021,0-0.032C253.421,99.751,252.747,99.077,251.92,99.082z"/>
					</g>
					<g>
						<path style="fill:#EBEBEB;" d="M223.329,106.941c-5.009,0.401-9.955,0.897-14.818,1.494c-0.746,0.092-1.303,0.729-1.302,1.48
							c0,0.01,0,0.021,0,0.031c0.001,0.89,0.774,1.574,1.657,1.465c4.827-0.592,9.735-1.085,14.707-1.482
							c0.764-0.061,1.36-0.693,1.367-1.46c0-0.01,0-0.02,0-0.03C224.948,107.567,224.199,106.872,223.329,106.941z"/>
					</g>
				</g>
			</g>
			<g>
				<polygon style="fill:#FFFFFF;" points="316.018,102.967 334.714,109.008 330.633,89.691 311.862,83.567 				"/>
				<polygon style="fill:#DBDBDB;" points="334.714,109.008 349.368,95.92 345.212,76.52 330.632,89.691 				"/>
				<polygon style="fill:#EBEBEB;" points="311.862,83.567 330.632,89.69 345.212,76.52 326.442,70.396 				"/>
			</g>
			<g>
				<g>
					<g>
						<path style="fill:#DBDBDB;" d="M421.626,195.293v25.025c0-11.51-31.131-25.568-55.438-34.385l-8.309,3.807v-31.724
							C382.66,166.364,421.626,182.416,421.626,195.293z"/>
					</g>
					<g>
						<path style="fill:#EBEBEB;" d="M379.967,171.851c0.012,0.61,0.028,1.221,0.038,1.831c0.002,0.115,0.008,0.231,0.012,0.346
							c20.849,8.55,41.605,19.641,41.605,29.04v-2.162C421.622,191.499,400.833,180.405,379.967,171.851z"/>
						<path style="fill:#EBEBEB;" d="M378.32,171.182c-4.141-1.672-8.264-3.24-12.207-4.669c0.007,0.697,0.013,1.394,0.022,2.091
							c0,0.025,0,0.051,0.001,0.077c3.921,1.421,8.021,2.98,12.139,4.641C378.288,172.607,378.305,171.895,378.32,171.182z"/>
						<path style="fill:#EBEBEB;" d="M413.721,195.479l0.033,1.477c0.005,0.242,0.012,0.483,0.018,0.725
							c4.853,3.825,7.849,7.637,7.849,11.206v-2.162C421.622,203.142,418.606,199.316,413.721,195.479z"/>
						<path style="fill:#EBEBEB;" d="M391.286,182.6c-8.191-3.8-17.018-7.311-25.098-10.242c0.008,0.722,0.015,1.445,0.023,2.167
							c8.063,2.924,16.868,6.425,25.042,10.216L391.286,182.6z"/>
						<path style="fill:#EBEBEB;" d="M392.949,183.38l0.034,2.173c7.104,3.37,13.646,6.949,18.675,10.547l0.048-2.126
							C406.662,190.36,400.089,186.765,392.949,183.38z"/>
						<path style="fill:#EBEBEB;" d="M376.132,182.173c-3.349-1.325-6.668-2.579-9.869-3.741c0.007,0.723,0.016,1.445,0.023,2.167
							c3.177,1.153,6.47,2.396,9.793,3.71C376.095,183.597,376.111,182.885,376.132,182.173z"/>
					</g>
					<path style="fill:#DBDBDB;" d="M421.63,194.62v25.016c0,8.273-6.341,16.029-17.444,22.733v-25.026
						C415.289,210.639,421.63,202.883,421.63,194.62z"/>
				</g>
				<g>
					<g>
						<path style="fill:#DBDBDB;" d="M421.626,161.617v25.025c0-12.877-38.966-28.944-63.747-37.291v-25.01
							C382.66,132.688,421.626,148.741,421.626,161.617z"/>
					</g>
					<g>
						<path style="fill:#EBEBEB;" d="M392.175,145.416c0.009-0.629,0.024-1.257,0.032-1.886
							c-8.472-3.976-17.693-7.647-26.094-10.693c0.007,0.697,0.013,1.394,0.022,2.091c0,0.026,0,0.051,0.001,0.077
							c8.382,3.037,17.579,6.699,26.033,10.664C392.171,145.584,392.174,145.5,392.175,145.416z"/>
						<path style="fill:#EBEBEB;" d="M394.276,144.514c0.004,0.301,0.011,0.601,0.015,0.902c0.006,0.426,0.019,0.851,0.03,1.277
							c15.094,7.289,27.3,15.492,27.3,22.699v-2.162C421.622,160.015,409.391,151.807,394.276,144.514z"/>
						<path style="fill:#EBEBEB;" d="M411.045,159.832c-11.216-7.833-29.408-15.546-44.857-21.15
							c0.008,0.723,0.015,1.445,0.023,2.167c15.42,5.591,33.568,13.287,44.783,21.106
							C411.011,161.248,411.028,160.54,411.045,159.832z"/>
						<path style="fill:#EBEBEB;" d="M412.944,161.212c0.018,0.734,0.036,1.467,0.054,2.201c5.302,4.023,8.624,8.045,8.624,11.798
							v-2.162C421.622,169.283,418.277,165.247,412.944,161.212z"/>
						<path style="fill:#EBEBEB;" d="M398.433,158.45c-9.961-5.119-21.693-9.891-32.171-13.694c0.007,0.723,0.016,1.445,0.023,2.167
							c10.447,3.79,22.137,8.545,32.075,13.647C398.382,159.864,398.406,159.157,398.433,158.45z"/>
					</g>
					<path style="fill:#DBDBDB;" d="M421.63,160.944v25.016c0,6.483-3.895,12.65-10.924,18.241l-6.52,8.552v-29.086
						C415.289,176.964,421.63,169.207,421.63,160.944z"/>
				</g>
				<g>
					<g>
						<path style="fill:#DBDBDB;" d="M421.626,127.942v25.025c0-11.824-32.852-26.337-57.41-35.094l-6.337,3.136V90.665
							C382.66,99.013,421.626,115.065,421.626,127.942z"/>
					</g>
					<g>
						<path style="fill:#EBEBEB;" d="M384.14,111.766c0.035-0.635,0.056-1.274,0.08-1.912c-6.082-2.602-12.29-5.012-18.107-7.121
							c0.007,0.697,0.013,1.394,0.022,2.091c0,0.026,0,0.051,0.001,0.077c5.78,2.094,11.946,4.488,17.99,7.071
							C384.131,111.903,384.137,111.834,384.14,111.766z"/>
						<path style="fill:#EBEBEB;" d="M416.496,128.259c0.013,0.725,0.018,1.45,0.015,2.175c3.212,3.028,5.11,6.018,5.11,8.854
							v-2.162C421.622,134.286,419.718,131.291,416.496,128.259z"/>
						<path style="fill:#EBEBEB;" d="M414.568,126.567c-6.704-5.52-17.416-11.092-28.743-16.02c0.016,0.407,0.028,0.814,0.051,1.219
							c0.018,0.33,0.043,0.659,0.067,0.989c11.257,4.905,21.896,10.445,28.58,15.935
							C414.533,127.981,414.548,127.274,414.568,126.567z"/>
						<path style="fill:#EBEBEB;" d="M392.115,119.208c-8.422-3.95-17.573-7.599-25.927-10.63c0.008,0.722,0.015,1.445,0.023,2.167
							c8.339,3.023,17.469,6.665,25.876,10.606C392.096,120.637,392.106,119.922,392.115,119.208z"/>
						<path style="fill:#EBEBEB;" d="M393.838,120.025c0.009,0.724,0.019,1.447,0.029,2.171c3.644,1.75,7.131,3.551,10.323,5.382
							c0.01-0.711,0.025-1.423,0.043-2.134C401.021,123.601,397.508,121.786,393.838,120.025z"/>
					</g>
					<path style="fill:#DBDBDB;" d="M421.63,127.269v25.016c0,8.273-6.341,16.029-17.444,22.733v-25.026
						C415.289,143.288,421.63,135.532,421.63,127.269z"/>
				</g>
			</g>
			<g>
				<path style="fill:#EBEBEB;" d="M309.115,214.55L309.115,214.55L309.115,214.55c0.701,4.254,4.035,7.588,8.289,8.289l0,0l0,0
					c-4.254,0.701-7.588,4.035-8.289,8.289l0,0l0,0c-0.701-4.254-4.035-7.588-8.289-8.289l0,0l0,0
					C305.08,222.138,308.414,218.804,309.115,214.55z"/>
				<path style="fill:#EBEBEB;" d="M94.337,226.963L94.337,226.963L94.337,226.963c0.701,4.254,4.035,7.588,8.289,8.289l0,0l0,0
					c-4.254,0.701-7.588,4.035-8.289,8.289l0,0l0,0c-0.701-4.254-4.035-7.588-8.289-8.289l0,0l0,0
					C90.303,234.551,93.637,231.217,94.337,226.963z"/>
				<path style="fill:#EBEBEB;" d="M301.775,205.862L301.775,205.862L301.775,205.862c0.373,2.266,2.149,4.042,4.416,4.416l0,0l0,0
					c-2.266,0.373-4.042,2.149-4.416,4.416l0,0l0,0c-0.373-2.266-2.15-4.042-4.416-4.416l0,0l0,0
					C299.625,209.904,301.402,208.128,301.775,205.862z"/>
				<path style="fill:#EBEBEB;" d="M92.579,372.769L92.579,372.769L92.579,372.769c0.577,3.503,3.323,6.249,6.826,6.827l0,0l0,0
					c-3.504,0.577-6.249,3.323-6.826,6.827l0,0l0,0c-0.577-3.504-3.323-6.249-6.826-6.827l0,0l0,0
					C89.256,379.019,92.002,376.273,92.579,372.769z"/>
				<path style="fill:#EBEBEB;" d="M391.286,385.717L391.286,385.717L391.286,385.717c0.577,3.503,3.323,6.249,6.826,6.826l0,0l0,0
					c-3.503,0.577-6.249,3.323-6.826,6.827l0,0l0,0c-0.577-3.503-3.323-6.249-6.827-6.827l0,0l0,0
					C387.963,391.966,390.709,389.22,391.286,385.717z"/>
				<path style="fill:#EBEBEB;" d="M273.012,336.434L273.012,336.434L273.012,336.434c0.562,3.411,3.235,6.085,6.647,6.647l0,0l0,0
					c-3.411,0.562-6.085,3.235-6.647,6.647l0,0l0,0c-0.562-3.411-3.235-6.085-6.647-6.647l0,0l0,0
					C269.776,342.519,272.45,339.846,273.012,336.434z"/>
				<path style="fill:#EBEBEB;" d="M206.444,171.396L206.444,171.396L206.444,171.396c0.605,3.671,3.482,6.549,7.153,7.153l0,0l0,0
					c-3.671,0.605-6.548,3.482-7.153,7.153l0,0l0,0c-0.605-3.671-3.482-6.549-7.153-7.153l0,0l0,0
					C202.962,177.945,205.84,175.067,206.444,171.396z"/>
			</g>
		</g>
		
			<line style="fill:none;stroke:#EBEBEB;stroke-width:2;stroke-miterlimit:10;" x1="73.368" y1="429.604" x2="426.632" y2="429.604"/>
		<g>
			
				<line style="fill:none;stroke:#DBDBDB;stroke-width:2;stroke-miterlimit:10;" x1="347.241" y1="113.363" x2="347.241" y2="89.623"/>
			
				<line style="fill:none;stroke:#DBDBDB;stroke-width:2;stroke-miterlimit:10;" x1="347.241" y1="115.527" x2="347.241" y2="118.534"/>
		</g>
		
			<line style="fill:none;stroke:#DBDBDB;stroke-width:2;stroke-miterlimit:10;" x1="342.188" y1="109.205" x2="342.188" y2="98.951"/>
	</g>
</g>
</svg>
